# xmcd
#
# Track frame offsets: 
#        150
#        9406
#        19123
#        29365
#        41688
#        53893
#        63442
#        76566
#        91526
#        110121
#        123025
#        137053
#
# Disc length: 1972 seconds
#
# Revision: 3
# Processed by: cddbd v1.5.2PL0 Copyright (c) Steve Scherf et al.
# Submitted via: ExactAudioCopyFreeDBPlugin 1.0
#
DISCID=8a07b20c
DTITLE=Various Artist - Truckin' Country
DYEAR=2001
DGENRE=Country
TTITLE0=Dave Dudley - Six Days On The Road
TTITLE1=Ferlin Husky - Truck Drivin' Son Of A Gun
TTITLE2=Waylon Jennings - White Lightning
TTITLE3=Bobby Bare - 500 Miles Away From Home
TTITLE4=Merle Haggard - Workin' Man Blues
TTITLE5=Mel McDaniel - Let It Roll (Let It Rock)
TTITLE6=Porter Wagoner - The Carroll County Accident
TTITLE7=T. Texas Tyler - Deck Of Cards
TTITLE8=Red Sovine - Giddyup Go
TTITLE9=Cowboy Copas - The Wreck On The Highway
TTITLE10=Tommy Overstreet - Heart Of Dixie
TTITLE11=Roger Miller - King Of The Road
EXTD=YEAR: 2001
EXTT0=
EXTT1=
EXTT2=
EXTT3=
EXTT4=
EXTT5=
EXTT6=
EXTT7=
EXTT8=
EXTT9=
EXTT10=
EXTT11=
PLAYORDER=
